<?xml version="1.0" standalone="no"?>
<!DOCTYPE svg PUBLIC "-//W3C//DTD SVG 20010904//EN"
 "http://www.w3.org/TR/2001/REC-SVG-20010904/DTD/svg10.dtd">
<svg version="1.0" xmlns="http://www.w3.org/2000/svg"
 width="700.000000pt" height="700.000000pt" viewBox="0 0 700.000000 700.000000"
 preserveAspectRatio="xMidYMid meet">
<metadata>
Created by potrace 1.14, written by Peter Selinger 2001-2017
</metadata>
<g transform="translate(0.000000,700.000000) scale(0.100000,-0.100000)"
fill="#000000" stroke="none">
<path d="M3300 6994 c-372 -32 -639 -83 -910 -174 -1208 -407 -2090 -1417
-2329 -2670 -58 -306 -74 -747 -38 -1050 135 -1118 755 -2063 1730 -2635 399
-233 880 -388 1392 -447 164 -19 578 -16 755 5 1180 142 2186 841 2720 1892
188 368 305 758 356 1185 25 200 25 600 0 800 -97 803 -440 1513 -1001 2075
-556 557 -1277 907 -2065 1000 -129 15 -515 27 -610 19z m615 -289 c1070 -145
1971 -778 2461 -1730 169 -327 279 -684 331 -1073 24 -177 24 -625 0 -804 -73
-549 -267 -1044 -576 -1476 -527 -737 -1316 -1208 -2226 -1329 -181 -24 -628
-24 -807 0 -892 119 -1660 567 -2190 1274 -330 441 -538 959 -615 1531 -24
180 -24 637 1 812 122 865 529 1587 1197 2124 490 393 1097 630 1769 690 105
9 540 -3 655 -19z"/>
<path d="M3420 5914 c-8 -3 -572 -315 -1254 -692 -929 -515 -1249 -698 -1281
-729 -102 -101 -99 -281 6 -379 19 -17 166 -105 327 -194 182 -101 291 -167
289 -175 -35 -89 -98 -367 -127 -560 -53 -340 -30 -1004 39 -1160 22 -50 70
-99 124 -126 26 -14 89 -28 176 -39 135 -19 361 -63 406 -80 l24 -9 3 -243 3
-243 28 -57 c47 -96 131 -148 239 -148 109 1 198 57 244 155 21 45 24 64 24
188 l0 139 86 -47 c162 -87 355 -222 509 -355 91 -78 127 -94 215 -94 92 0
122 14 237 112 441 375 977 609 1568 685 199 26 277 94 304 268 59 364 55 817
-9 1179 -18 101 -87 386 -105 431 -5 13 53 49 287 179 161 89 308 177 327 194
105 97 108 276 7 379 -32 32 -333 203 -1286 732 l-1244 690 -76 2 c-41 1 -82
0 -90 -3z m1002 -1080 c502 -279 919 -512 926 -519 10 -9 -193 -125 -918 -528
l-930 -517 -162 91 c-90 49 -166 94 -171 98 -4 4 102 68 235 142 134 73 260
149 281 168 140 126 104 352 -68 436 -47 24 -64 27 -128 24 l-73 -4 -399 -222
c-220 -122 -405 -223 -411 -225 -18 -5 -965 525 -955 535 14 14 1835 1026
1848 1026 7 1 423 -227 925 -505z m-2272 -1968 c0 -470 -2 -537 -15 -532 -8 3
-63 14 -122 26 -59 11 -109 23 -112 26 -3 3 -7 111 -9 239 -5 305 12 482 74
753 l26 112 79 -42 79 -43 0 -539z m2899 441 c49 -236 64 -399 59 -674 -2
-133 -6 -244 -9 -247 -3 -3 -43 -13 -90 -21 -489 -91 -1001 -311 -1392 -597
-108 -80 -116 -84 -133 -72 -7 5 -54 38 -103 74 -161 115 -302 199 -498 297
l-193 95 0 469 0 470 23 -12 c12 -6 171 -94 352 -195 362 -200 399 -215 487
-195 37 8 263 128 753 401 635 353 701 387 707 369 4 -11 21 -84 37 -162z"/>
</g>
</svg>
