<?xml version="1.0" standalone="no"?>
<!DOCTYPE svg PUBLIC "-//W3C//DTD SVG 20010904//EN"
 "http://www.w3.org/TR/2001/REC-SVG-20010904/DTD/svg10.dtd">
<svg version="1.0" xmlns="http://www.w3.org/2000/svg"
 width="1016.000000pt" height="1016.000000pt" viewBox="0 0 1016.000000 1016.000000"
 preserveAspectRatio="xMidYMid meet">
<metadata>
Created by potrace 1.14, written by Peter Selinger 2001-2017
</metadata>
<g transform="translate(0.000000,1016.000000) scale(0.100000,-0.100000)"
fill="#000000" stroke="none">
<path d="M3295 8220 l-370 -5 1 -272 c0 -171 -3 -270 -10 -266 -5 4 -6 1 0 -8
13 -20 13 -99 0 -99 -8 0 -8 -3 -1 -8 14 -10 16 -214 2 -205 -6 4 -7 1 -1 -8
12 -20 13 -320 1 -312 -6 4 -7 1 -1 -8 13 -20 13 -119 0 -119 -7 0 -7 -3 1 -8
13 -8 12 -29 -1 -51 -6 -9 -5 -12 1 -8 14 9 12 -86 -2 -95 -6 -5 -6 -8 2 -8
15 0 13 -120 -2 -120 -7 0 -7 -3 0 -8 14 -10 17 -145 3 -136 -7 5 -8 2 -2 -7
13 -20 14 -240 1 -232 -6 4 -7 1 -1 -8 13 -21 13 -279 0 -279 -8 0 -8 -3 -1
-8 15 -10 15 -105 1 -114 -8 -6 -8 -8 0 -8 11 0 10 -77 -1 -88 -2 -3 0 -12 5
-22 5 -10 6 -20 3 -24 -4 -4 -8 -17 -10 -29 -7 -55 -26 -153 -32 -162 -3 -5
-7 -17 -8 -26 -5 -30 -40 -99 -47 -92 -4 4 -5 1 -1 -7 3 -8 -6 -27 -20 -42
-14 -16 -22 -28 -18 -28 4 0 -14 -20 -40 -44 -44 -40 -167 -115 -167 -101 0 3
-13 -1 -28 -9 -26 -13 -93 -28 -134 -30 -10 0 -18 -3 -18 -6 0 -6 -30 -8 -212
-12 -76 -2 -138 0 -138 5 0 4 -8 3 -19 -2 -10 -6 -20 -8 -23 -6 -2 2 -24 7
-48 10 -37 4 -67 9 -120 20 -74 15 -182 61 -217 92 -12 11 -33 28 -47 38 -14
10 -23 22 -20 27 3 4 1 8 -5 8 -9 0 -65 85 -66 100 -1 3 -6 15 -13 28 -7 12
-9 22 -5 22 4 0 2 4 -4 8 -7 5 -14 20 -15 35 -1 15 -7 27 -12 27 -5 0 -7 2 -4
5 3 3 1 27 -4 53 -14 70 -19 125 -22 253 -1 63 -5 120 -9 126 -4 5 -4 13 0 16
9 9 9 298 0 304 -4 2 -4 9 -1 15 5 8 9 1877 5 1931 -1 4 -289 7 -640 7 l-640
0 0 -61 c0 -33 -2 -63 -4 -66 -3 -2 -1 -17 3 -33 4 -16 6 -31 3 -34 -6 -6 -5
-355 2 -366 3 -5 1 -10 -4 -12 -5 -2 -6 -24 -1 -50 4 -27 4 -48 1 -48 -5 0 -5
-33 -1 -150 0 -14 1 -67 1 -119 -1 -51 2 -97 4 -101 3 -5 1 -10 -4 -12 -5 -2
-6 -24 -1 -50 4 -27 4 -48 1 -48 -5 0 -5 -33 -1 -150 0 -14 1 -67 1 -119 -1
-51 2 -97 4 -101 3 -5 1 -10 -4 -12 -5 -2 -6 -24 -1 -50 4 -27 4 -48 1 -48 -5
0 -5 -33 -1 -150 0 -14 1 -67 1 -119 -1 -51 2 -97 4 -101 3 -5 1 -10 -4 -12
-5 -2 -6 -24 -1 -50 4 -27 4 -48 1 -48 -5 0 -5 -33 -1 -150 0 -14 1 -67 1
-119 -1 -51 2 -97 5 -102 3 -5 0 -9 -6 -9 -7 0 -9 -8 -5 -20 3 -11 6 -32 6
-47 -2 -59 4 -143 13 -182 7 -29 20 -129 20 -158 1 -11 4 -19 8 -16 5 2 9 -8
10 -24 1 -33 3 -43 11 -63 3 -8 13 -40 22 -70 10 -30 28 -79 41 -108 13 -29
24 -59 24 -67 0 -8 4 -15 9 -15 5 0 12 -11 15 -24 3 -14 12 -31 19 -38 6 -7
23 -33 37 -58 25 -47 33 -58 63 -91 9 -10 18 -24 20 -30 1 -6 24 -33 50 -60
27 -26 46 -53 42 -58 -3 -7 0 -8 9 -5 9 3 16 1 16 -4 0 -6 9 -14 20 -17 11 -3
20 -13 20 -21 0 -8 4 -14 8 -14 7 0 38 -22 91 -67 14 -13 30 -23 34 -23 4 0
17 -8 27 -18 11 -10 39 -28 62 -41 114 -62 156 -83 188 -95 127 -49 230 -84
230 -80 0 2 10 -1 22 -8 13 -7 28 -12 33 -13 6 0 37 -7 70 -15 76 -17 75 -17
78 -19 1 -2 20 -4 42 -7 22 -2 60 -8 85 -14 51 -10 128 -21 180 -25 236 -19
465 -23 670 -10 178 10 215 13 215 15 0 1 16 3 35 6 55 6 105 13 105 14 0 2
37 9 70 13 17 2 36 7 43 11 7 4 12 5 12 3 0 -3 32 3 70 13 39 10 70 16 70 13
0 -3 6 0 13 6 8 6 31 13 53 17 21 3 41 9 44 13 3 3 14 7 25 9 11 1 29 7 40 12
11 5 61 26 110 46 79 33 113 51 225 115 14 8 27 16 30 19 13 13 66 44 73 42 4
-1 7 5 7 13 0 8 5 15 12 15 6 0 23 11 37 25 105 99 141 136 141 144 0 5 6 11
13 14 8 3 36 36 62 74 27 37 53 70 57 71 4 2 8 8 8 13 0 5 18 41 39 79 22 39
38 70 36 70 -4 0 17 51 50 125 8 17 16 43 19 58 2 14 7 31 10 36 6 9 18 75 19
99 0 6 3 12 7 12 3 0 7 15 9 33 4 40 9 72 11 72 3 0 12 112 14 163 0 28 3 52
6 52 7 0 5 1559 -2 1566 -3 3 -4 14 -1 24 5 18 20 19 320 17 l316 -2 0 -50 c1
-28 -2 -56 -6 -63 -5 -6 -5 -12 0 -12 4 0 7 -661 6 -1470 l-1 -1469 77 1 c43
0 82 -2 87 -5 6 -3 15 -3 21 1 6 4 37 6 70 4 82 -4 136 -3 141 2 2 3 15 1 28
-4 14 -6 26 -6 29 1 4 5 10 7 14 5 9 -6 52 -7 214 -7 64 0 123 0 130 0 6 0 41
0 77 1 36 0 83 1 105 1 22 0 94 1 160 2 l120 2 0 60 c0 33 4 65 7 71 4 6 5 14
1 18 -11 11 -9 716 2 716 7 0 7 3 0 8 -14 10 -16 74 -2 65 6 -4 7 -1 2 7 -11
18 -12 159 -1 153 5 -4 6 0 1 7 -12 20 -12 720 0 720 7 0 7 3 0 8 -14 10 -16
74 -2 65 6 -4 7 -1 2 7 -11 18 -12 159 -1 153 5 -4 6 0 1 7 -12 20 -13 80 -1
80 7 0 7 3 1 8 -14 10 -16 74 -2 65 6 -4 7 -1 2 7 -12 19 -12 159 0 152 7 -4
7 -1 0 9 -8 11 -12 528 -6 661 1 16 24 17 309 15 l307 -2 1 -125 c0 -80 -3
-128 -10 -132 -8 -5 -7 -8 2 -8 15 0 13 -60 -3 -60 -7 0 -6 -3 1 -8 12 -8 14
-220 2 -238 -4 -6 -4 -14 0 -18 11 -12 10 -406 -1 -399 -6 4 -7 1 -1 -8 13
-20 13 -282 0 -291 -8 -6 -8 -8 0 -8 12 0 14 -218 2 -236 -4 -6 -4 -14 0 -18
12 -13 10 -386 -2 -386 -8 0 -8 -3 0 -8 6 -4 11 -50 11 -117 0 -67 -5 -113
-11 -117 -7 -5 -7 -8 2 -8 15 0 13 -60 -3 -60 -7 0 -6 -3 1 -8 12 -8 14 -220
2 -238 -4 -6 -4 -14 -1 -18 12 -12 12 -40 0 -55 -7 -8 -7 -12 -1 -8 15 8 14
-215 0 -225 -8 -6 -8 -8 0 -8 7 0 10 -39 9 -117 0 -65 1 -124 3 -130 4 -13 27
-14 282 -13 47 0 113 0 148 0 34 0 69 -1 77 -1 108 0 157 1 190 2 22 0 45 0
50 0 28 -1 180 -1 345 -1 l185 1 -1 702 c0 490 3 706 10 716 8 11 8 13 -1 8
-9 -6 -12 4 -10 38 l2 45 80 1 c44 0 450 0 903 0 l822 0 0 32 c3 364 1 867 -3
873 -3 6 -348 9 -809 9 -534 0 -805 3 -810 10 -5 7 -8 7 -8 0 0 -7 -32 -10
-87 -9 l-88 1 -1 309 c0 170 1 315 4 321 3 10 192 12 855 12 469 0 925 1 1015
1 l163 0 -1 53 c0 28 0 87 1 129 0 43 -2 82 -6 88 -3 5 -2 10 3 10 4 0 7 17 4
38 -2 20 -3 43 -3 50 1 14 2 91 2 185 0 6 -1 43 -2 80 -1 37 1 70 4 73 3 3 2
18 -2 32 -5 15 -5 36 -1 47 4 11 5 24 2 29 -2 5 -4 42 -4 82 l1 74 -1357 1
c-746 1 -1370 1 -1387 1 -16 0 -52 -1 -80 -2 -27 -1 -54 -1 -60 0 -23 4 -218
-1 -226 -6 -5 -3 -9 -2 -9 3 0 4 -75 7 -167 6 -93 -2 -377 -3 -633 -2 -256 0
-472 1 -480 0 -8 0 -116 0 -240 0 -124 1 -232 1 -240 0 -8 0 -116 0 -240 0
-124 1 -229 1 -235 1 -59 -1 -881 -2 -885 -1 -24 3 -193 3 -505 -1z"/>
<path d="M1850 3940 l-395 -5 0 -380 0 -380 -315 0 c-173 0 -323 3 -333 8 -15
7 -16 11 -6 23 6 8 8 14 3 14 -5 0 -9 161 -8 360 l1 359 -339 1 -339 0 0 -62
c1 -35 1 -70 0 -78 0 -8 0 -116 0 -240 0 -124 0 -232 0 -240 0 -8 0 -116 0
-240 0 -124 0 -232 0 -240 0 -8 0 -116 0 -240 0 -124 0 -232 0 -240 0 -8 0
-117 1 -241 0 -125 0 -230 -1 -235 -1 -5 -1 -21 0 -36 l1 -28 338 0 339 0 -1
383 c-1 210 0 389 2 397 3 13 44 15 305 13 166 0 313 -2 327 -2 l26 -1 -1
-395 0 -395 1895 0 1895 0 0 320 0 321 50 -1 c77 -1 269 -2 280 -2 142 3 317
11 340 16 62 14 132 40 196 73 85 44 219 172 219 210 0 7 4 13 9 13 21 0 95
226 93 283 0 9 2 17 6 17 4 0 7 -271 7 -602 0 -332 1 -613 4 -625 l3 -23 1187
0 1186 0 0 356 0 356 180 -4 c198 -4 224 -10 267 -68 31 -43 33 -57 42 -305 6
-146 9 -172 32 -267 l16 -68 340 0 340 0 -7 43 c-11 73 -15 91 -20 117 -15 70
-23 172 -26 347 -2 133 -17 212 -54 290 -27 55 -109 149 -150 171 -19 11 -18
13 15 39 97 76 195 214 214 303 21 94 24 126 22 215 -2 87 -11 137 -33 195 -4
8 -7 17 -8 20 -21 62 -78 146 -132 193 -38 34 -133 102 -146 105 -4 1 -24 9
-45 18 -42 17 -127 41 -187 52 -22 4 -715 7 -1540 7 l-1500 0 0 -292 c0 -161
-3 -293 -7 -293 -5 0 -8 12 -8 28 0 72 -54 209 -116 297 -38 53 -116 135 -128
135 -3 0 -24 13 -48 29 -24 16 -70 38 -103 50 -140 49 -147 50 -831 51 l-644
1 3 -46 c1 -24 -2 -46 -7 -48 -5 -2 -5 -10 1 -21 6 -11 7 -33 3 -52 -4 -19 -5
-34 -1 -34 3 0 5 -28 3 -62 -2 -35 -3 -72 -3 -83 3 -119 1 -176 -4 -185 -3 -5
-2 -10 3 -10 6 0 7 -14 2 -34 -4 -19 -4 -40 0 -47 5 -7 4 -23 -1 -36 -5 -12
-5 -23 -1 -23 6 0 6 -44 0 -158 -2 -23 -1 -42 2 -42 6 0 2 -116 -4 -142 -2
-10 -1 -18 2 -18 7 0 5 -112 -2 -142 -2 -10 -1 -18 2 -18 7 0 5 -112 -2 -142
-2 -10 -1 -18 2 -18 6 0 6 -112 0 -168 l-2 -22 -361 2 c-314 3 -360 5 -357 18
4 16 5 158 2 175 -1 6 -1 15 0 20 2 13 2 87 0 100 -1 6 -2 14 0 20 6 30 4 95
-3 95 -5 0 -5 4 -2 10 6 9 9 94 5 115 -1 6 -2 14 0 20 6 30 4 95 -3 95 -5 0
-5 4 -2 10 6 9 9 94 5 115 -1 6 -2 14 0 20 6 30 4 95 -3 95 -5 0 -5 4 -2 10 6
9 9 94 5 115 -1 6 -2 14 0 20 6 30 4 95 -3 95 -5 0 -5 4 -2 10 6 9 9 94 5 115
-1 6 -2 14 0 20 5 28 4 95 -2 95 -4 0 -3 12 1 28 5 15 5 37 0 49 -4 12 -4 25
0 27 5 3 6 17 3 31 l-4 25 -637 0 c-350 0 -708 2 -796 3 -88 1 -338 0 -555 -3z
m3777 -565 c80 -15 118 -70 116 -171 0 -28 -10 -72 -22 -98 -16 -37 -29 -51
-63 -66 -39 -17 -65 -19 -228 -17 l-185 2 0 180 0 180 172 -1 c94 -1 189 -5
210 -9z m3596 1 c57 -7 105 -40 109 -75 7 -76 2 -136 -12 -169 -28 -62 -62
-70 -296 -68 l-199 1 -1 150 c0 83 3 155 7 160 8 11 303 12 392 1z m-6067
-496 l0 -490 -511 0 -511 0 0 115 c0 109 1 116 20 120 12 3 227 4 479 2 251
-1 457 0 458 3 3 15 4 517 1 526 -2 9 -127 12 -455 12 -249 0 -463 1 -477 1
l-26 1 0 100 1 100 510 0 511 0 0 -490z m4984 116 c-1 -205 0 -377 1 -382 1
-5 1 -57 0 -116 l-1 -108 -508 0 -508 0 1 118 0 117 474 1 c311 1 476 6 480
12 5 8 7 490 2 523 -1 4 -213 7 -471 7 -259 -1 -474 3 -478 6 -4 4 -7 50 -7
102 l0 94 508 0 507 0 0 -374z"/>
</g>
</svg>
